<svg xmlns="http://www.w3.org/2000/svg" viewBox="508.328 352.183 897.674 375.464" role="img" aria-label="Tottem logo">
  <path d="M 1004.987 699.489 L 918.012 649.218 L 1004.987 598.991 L 1091.998 649.197 L 1004.987 699.489 Z M 823.431 594.597 L 910.406 544.371 L 997.417 594.576 L 910.366 644.845 L 823.431 594.597 Z M 728.850 539.976 L 815.824 489.750 L 902.836 539.955 L 815.785 590.225 L 728.850 539.976 Z M 656.468 498.187 L 634.233 485.335 L 721.243 435.130 L 808.218 485.356 L 721.260 535.572 L 656.468 498.187 Z M 626.695 590.248 L 539.684 539.955 L 626.695 489.750 L 652.676 504.741 L 713.654 539.986 L 626.695 590.248 Z M 815.824 380.509 L 902.836 430.714 L 815.864 480.984 L 770.143 454.602 L 728.814 430.714 L 815.824 380.509 Z M 1101.460 645.914 L 823.395 485.376 L 912.300 433.989 C 913.471 433.312, 914.192 432.062, 914.192 430.710 C 914.191 429.357, 913.469 428.108, 912.298 427.432 L 817.716 372.859 C 816.546 372.183, 815.103 372.183, 813.932 372.859 L 530.222 536.673 C 529.050 537.349, 528.329 538.598, 528.328 539.951 C 528.328 541.303, 529.049 542.553, 530.219 543.230 L 624.801 597.898 C 625.387 598.237, 626.041 598.406, 626.695 598.406 C 627.350 598.406, 628.004 598.237, 628.590 597.898 L 721.260 544.335 L 1003.092 707.139 C 1003.678 707.478, 1004.333 707.647, 1004.987 707.647 C 1005.641 707.647, 1006.296 707.478, 1006.882 707.139 L 1101.463 652.471 C 1102.633 651.795, 1103.354 650.545, 1103.354 649.192 C 1103.353 647.840, 1102.632 646.591, 1101.460 645.914 Z" fill="#ffffff"/><path d="M 1115.772 540.002 L 1129.031 540.002 L 1129.031 506.649 L 1145.183 506.649 L 1145.183 495.934 L 1099.620 495.934 L 1099.620 506.649 L 1115.772 506.649 L 1115.772 540.002 Z" fill="#ffffff"/><path d="M 1164.202 509.765 C 1166.237 507.688, 1169.035 506.649, 1172.596 506.649 C 1174.461 506.649, 1176.104 506.931, 1177.524 507.492 C 1178.944 508.054, 1180.147 508.838, 1181.133 509.845 C 1182.119 510.851, 1182.855 512.038, 1183.343 513.406 C 1183.830 514.773, 1184.074 516.283, 1184.074 517.936 C 1184.074 520.141, 1183.629 522.097, 1182.739 523.803 C 1181.848 525.509, 1180.545 526.845, 1178.827 527.809 C 1177.111 528.774, 1175.033 529.256, 1172.596 529.256 C 1169.056 529.256, 1166.263 528.212, 1164.218 526.124 C 1162.172 524.036, 1161.149 521.307, 1161.149 517.936 C 1161.149 514.566, 1162.167 511.843, 1164.202 509.765 Z M 1158.765 537.395 C 1162.537 539.515, 1167.148 540.575, 1172.596 540.575 C 1177.980 540.575, 1182.548 539.557, 1186.300 537.522 C 1190.051 535.487, 1192.876 532.743, 1194.773 529.287 C 1196.670 525.832, 1197.619 522.049, 1197.619 517.936 C 1197.619 514.906, 1197.089 512.017, 1196.029 509.272 C 1194.969 506.527, 1193.410 504.121, 1191.355 502.055 C 1189.299 499.988, 1186.676 498.350, 1183.486 497.142 C 1180.295 495.934, 1176.665 495.330, 1172.596 495.330 C 1167.148 495.330, 1162.533 496.385, 1158.749 498.494 C 1154.965 500.603, 1152.162 503.380, 1150.339 506.824 C 1148.516 510.269, 1147.605 513.973, 1147.605 517.936 C 1147.605 521.879, 1148.521 525.578, 1150.355 529.033 C 1152.188 532.488, 1154.992 535.276, 1158.765 537.395 Z" fill="#ffffff"/><path d="M 1244.247 495.934 L 1198.867 495.934 L 1198.867 506.649 L 1215.019 506.649 L 1215.019 540.002 L 1228.278 540.002 L 1228.278 506.649 L 1244.247 506.649 L 1244.430 506.649 L 1260.399 506.649 L 1260.399 540.002 L 1273.658 540.002 L 1273.658 506.649 L 1289.810 506.649 L 1289.810 495.934 L 1244.430 495.934 L 1244.247 495.934 Z" fill="#ffffff"/><path d="M 1329.557 531.131 L 1309.621 531.131 L 1309.621 521.720 L 1328.126 521.720 L 1328.126 512.849 L 1309.621 512.849 L 1309.621 504.773 L 1329.016 504.773 L 1329.016 495.934 L 1296.331 495.934 L 1296.331 540.002 L 1329.557 540.002 L 1329.557 531.131 Z" fill="#ffffff"/><path d="M 1360.343 512.467 L 1346.798 495.933 L 1334.748 495.933 L 1334.748 540.002 L 1347.657 540.002 L 1347.657 514.470 L 1359.676 529.255 L 1360.725 529.255 L 1372.711 514.470 L 1372.711 540.002 L 1386.002 540.002 L 1386.002 495.933 L 1373.951 495.933 L 1360.343 512.467 Z" fill="#ffffff"/>
</svg>
