<svg xmlns="http://www.w3.org/2000/svg" viewBox="508.328 352.183 615.026 375.464" role="img" aria-label="Tottem logo">
  <path d="M 1004.987 699.489 L 918.012 649.218 L 1004.987 598.991 L 1091.998 649.197 L 1004.987 699.489 Z M 823.431 594.597 L 910.406 544.371 L 997.417 594.576 L 910.366 644.845 L 823.431 594.597 Z M 728.850 539.976 L 815.824 489.750 L 902.836 539.955 L 815.785 590.225 L 728.850 539.976 Z M 656.468 498.187 L 634.233 485.335 L 721.243 435.130 L 808.218 485.356 L 721.260 535.572 L 656.468 498.187 Z M 626.695 590.248 L 539.684 539.955 L 626.695 489.750 L 652.676 504.741 L 713.654 539.986 L 626.695 590.248 Z M 815.824 380.509 L 902.836 430.714 L 815.864 480.984 L 770.143 454.602 L 728.814 430.714 L 815.824 380.509 Z M 1101.460 645.914 L 823.395 485.376 L 912.300 433.989 C 913.471 433.312, 914.192 432.062, 914.192 430.710 C 914.191 429.357, 913.469 428.108, 912.298 427.432 L 817.716 372.859 C 816.546 372.183, 815.103 372.183, 813.932 372.859 L 530.222 536.673 C 529.050 537.349, 528.329 538.598, 528.328 539.951 C 528.328 541.303, 529.049 542.553, 530.219 543.230 L 624.801 597.898 C 625.387 598.237, 626.041 598.406, 626.695 598.406 C 627.350 598.406, 628.004 598.237, 628.590 597.898 L 721.260 544.335 L 1003.092 707.139 C 1003.678 707.478, 1004.333 707.647, 1004.987 707.647 C 1005.641 707.647, 1006.296 707.478, 1006.882 707.139 L 1101.463 652.471 C 1102.633 651.795, 1103.354 650.545, 1103.354 649.192 C 1103.353 647.840, 1102.632 646.591, 1101.460 645.914 Z" fill="#ffffff"/>
</svg>
